<svg xmlns="http://www.w3.org/2000/svg" xmlns:xlink="http://www.w3.org/1999/xlink" width="776" height="706" viewBox="0 0 776 706"><defs><clipPath id="b"><rect width="776" height="706"/></clipPath></defs><g id="a" clip-path="url(#b)"><g transform="translate(85 -112)"><path d="M144.284,253.722h0l-.752-.714h1.623l-.87.714Zm-.754-.714H-107.993a4.949,4.949,0,0,1-4.33-2.5,4.95,4.95,0,0,1,0-5l87.83-151.987h0L-69.819,50.493-17.66,81.7l-6.832,11.822h0L143.532,253.007h0Zm243.149,0H145.155L314.427,114.06l-31.1-53.475L144.284,178.574-17.66,81.7,135.014-182.5a4.948,4.948,0,0,1,4.329-2.5,4.95,4.95,0,0,1,4.329,2.5l139.676,243.1L391.009,245.5a5,5,0,0,1-4.33,7.5Z" transform="translate(163.657 342.993)" fill="#76848f"/><g transform="translate(0 6)"><path d="M81.117,18.855l-.012-.012a.352.352,0,0,0-.039-.035,1.994,1.994,0,0,0-2.609-.082C59.5,31.48,41.051,32.671,21.57,18.75a2,2,0,0,0-2.359-.156h0a1.736,1.736,0,0,0-.148.105c-.016.012-.027.023-.043.035a1.024,1.024,0,0,0-.1.086c-.027.023-.051.047-.074.07s-.039.043-.059.066a1.215,1.215,0,0,0-.09.109.215.215,0,0,0-.027.035,2,2,0,0,0,.09,2.48c13.91,19.469,12.723,37.906-.02,56.855a1.994,1.994,0,0,0,.008,2.555c.027.035.055.066.082.1.023.02.043.039.063.059l.035.035a2,2,0,0,0,2.613.086c18.969-12.75,37.406-13.949,56.887-.027v0a2,2,0,0,0,2.355.156c.008,0,.012,0,.016-.008.051-.031.094-.062.141-.1a.428.428,0,0,0,.043-.039,1.073,1.073,0,0,0,.1-.086l.07-.07c.02-.023.039-.043.059-.062.035-.039.063-.074.094-.113a.215.215,0,0,1,.027-.035c.035-.051.07-.1.1-.156a2.008,2.008,0,0,0-.191-2.32c-13.906-19.473-12.715-37.9.023-56.863h0A1.994,1.994,0,0,0,81.254,19c-.027-.031-.055-.062-.086-.094-.016-.02-.031-.035-.047-.055Z" transform="matrix(0.695, 0.719, -0.719, 0.695, 511.954, 287.02)" fill="#76848f" fill-rule="evenodd"/><path d="M44.753,18.522l0,0-.016-.015a.84.84,0,0,0-1.1-.035c-7.988,5.373-15.759,5.875-23.967.01a.841.841,0,0,0-.994-.066h0a.732.732,0,0,0-.063.044l-.018.015a.431.431,0,0,0-.041.036c-.012.01-.021.02-.031.03l-.025.028a.512.512,0,0,0-.038.046.09.09,0,0,0-.012.015.844.844,0,0,0,.038,1.045c5.86,8.2,5.36,15.97-.008,23.953a.84.84,0,0,0,0,1.076l.035.043c.01.008.018.016.026.025l.015.015a.842.842,0,0,0,1.1.036c7.992-5.372,15.759-5.877,23.967-.012v0a.842.842,0,0,0,.992.066l.007,0c.021-.013.039-.026.059-.041a.179.179,0,0,0,.018-.016.451.451,0,0,0,.043-.036l.03-.03c.008-.01.016-.018.025-.026s.026-.031.039-.048a.09.09,0,0,1,.012-.015c.015-.021.03-.043.043-.066a.846.846,0,0,0-.081-.978c-5.859-8.2-5.357-15.968.01-23.956h0a.84.84,0,0,0,0-1.078c-.012-.013-.023-.026-.036-.039l-.02-.023Z" transform="matrix(0.695, 0.719, -0.719, 0.695, 466.254, 262.181)" fill="#76848f" fill-rule="evenodd"/></g></g><path d="M6.48-52.48h7.36l7.44,22.32,2.64,8.48h.32l2.56-8.48,7.36-22.32h7.36V0H35.84V-29.52q0-1.6.08-3.76t.2-4.36q.12-2.2.24-4.32t.28-3.72H36.4l-3.44,11.2-7.2,20.24h-3.6l-7.2-20.24-3.52-11.2H11.2q.08,1.6.24,3.72t.32,4.32q.16,2.2.24,4.36t.08,3.76V0H6.48ZM53.52-19.36a21.06,21.06,0,0,1,1.68-8.6,19.953,19.953,0,0,1,4.44-6.44,19.249,19.249,0,0,1,6.32-4.04,19.835,19.835,0,0,1,7.32-1.4,19.789,19.789,0,0,1,7.44,1.32,15.57,15.57,0,0,1,5.56,3.72,16.109,16.109,0,0,1,3.48,5.76,21.992,21.992,0,0,1,1.2,7.44q0,1.04-.04,2.04a9.855,9.855,0,0,1-.2,1.72H60.32a13.923,13.923,0,0,0,1.24,5.6A13.069,13.069,0,0,0,64.68-8a13.846,13.846,0,0,0,4.64,2.72,17.324,17.324,0,0,0,5.88.96,19.517,19.517,0,0,0,6.28-.96,27.068,27.068,0,0,0,5.56-2.64L89.36-3.6A34.113,34.113,0,0,1,82.8-.4,24.132,24.132,0,0,1,74.4.96a23.3,23.3,0,0,1-8.12-1.4,19.911,19.911,0,0,1-6.64-4,18.551,18.551,0,0,1-4.48-6.36A21.218,21.218,0,0,1,53.52-19.36Zm31.36-3.2q0-5.84-3.04-8.96t-8.48-3.12a13.356,13.356,0,0,0-4.6.8,12.21,12.21,0,0,0-3.96,2.36,13.6,13.6,0,0,0-2.96,3.8,15.175,15.175,0,0,0-1.6,5.12ZM100.8-38.88h5.12l.56,5.12h.24a14.862,14.862,0,0,1,3.4-4.4,7.9,7.9,0,0,1,5.32-1.68q5.92,0,7.36,6.72A19.46,19.46,0,0,1,126.64-38,7.789,7.789,0,0,1,132-39.84a7.254,7.254,0,0,1,6.28,3.08q2.2,3.08,2.2,8.92V0h-6.32V-27.28q0-6.88-4.24-6.88a4.987,4.987,0,0,0-3.6,1.48,16.912,16.912,0,0,0-3.04,4.52V0H118V-27.28q0-6.88-4.4-6.88a4.723,4.723,0,0,0-3.52,1.48,18.342,18.342,0,0,0-2.96,4.52V0H100.8Zm50.64-18.08H158v15.52l-.16,7.52a22.37,22.37,0,0,1,6.28-4.32,16.456,16.456,0,0,1,6.92-1.6,16.466,16.466,0,0,1,6.96,1.4,13.582,13.582,0,0,1,5.08,4,17.99,17.99,0,0,1,3.08,6.24,29.526,29.526,0,0,1,1.04,8.12,25.632,25.632,0,0,1-1.44,8.88,20.293,20.293,0,0,1-3.88,6.64,16.3,16.3,0,0,1-5.64,4.12A16.4,16.4,0,0,1,169.6.96a15.3,15.3,0,0,1-6.04-1.4,22.614,22.614,0,0,1-6.04-3.88h-.24L156.72,0h-5.28ZM158-9.12a17.886,17.886,0,0,0,5.64,3.52,14.672,14.672,0,0,0,4.92,1.04,10.405,10.405,0,0,0,4.72-1.08,11.407,11.407,0,0,0,3.76-3.04,14.052,14.052,0,0,0,2.48-4.84A22.145,22.145,0,0,0,180.4-20a24.8,24.8,0,0,0-.64-5.84,13.194,13.194,0,0,0-1.96-4.52,9.01,9.01,0,0,0-3.4-2.92,10.978,10.978,0,0,0-4.96-1.04,12.733,12.733,0,0,0-5.48,1.4A22.251,22.251,0,0,0,158-28.48Zm39.52-10.24a21.06,21.06,0,0,1,1.68-8.6,19.953,19.953,0,0,1,4.44-6.44,19.248,19.248,0,0,1,6.32-4.04,19.835,19.835,0,0,1,7.32-1.4,19.789,19.789,0,0,1,7.44,1.32,15.57,15.57,0,0,1,5.56,3.72,16.109,16.109,0,0,1,3.48,5.76,21.992,21.992,0,0,1,1.2,7.44q0,1.04-.04,2.04a9.853,9.853,0,0,1-.2,1.72h-30.4a13.923,13.923,0,0,0,1.24,5.6A13.069,13.069,0,0,0,208.68-8a13.846,13.846,0,0,0,4.64,2.72,17.324,17.324,0,0,0,5.88.96,19.517,19.517,0,0,0,6.28-.96,27.068,27.068,0,0,0,5.56-2.64l2.32,4.32A34.113,34.113,0,0,1,226.8-.4,24.132,24.132,0,0,1,218.4.96a23.3,23.3,0,0,1-8.12-1.4,19.911,19.911,0,0,1-6.64-4,18.551,18.551,0,0,1-4.48-6.36A21.217,21.217,0,0,1,197.52-19.36Zm31.36-3.2q0-5.84-3.04-8.96t-8.48-3.12a13.356,13.356,0,0,0-4.6.8,12.21,12.21,0,0,0-3.96,2.36,13.6,13.6,0,0,0-2.96,3.8,15.175,15.175,0,0,0-1.6,5.12Zm22.8-16.32h5.44l.56,9.2h.24a23.429,23.429,0,0,1,7.48-7.44,18.54,18.54,0,0,1,9.88-2.72,20.848,20.848,0,0,1,4,.36,15.356,15.356,0,0,1,3.68,1.24l-1.52,5.68a34.622,34.622,0,0,0-3.48-1.04,17.331,17.331,0,0,0-3.72-.32,15.716,15.716,0,0,0-8.44,2.52q-4.04,2.52-7.56,8.6V0h-6.56Zm44.48-13.6h16.08a36.539,36.539,0,0,1,7.92.8,16.6,16.6,0,0,1,6.12,2.6,12.066,12.066,0,0,1,3.92,4.76,16.96,16.96,0,0,1,1.4,7.28,17.085,17.085,0,0,1-1.4,7.2,13.407,13.407,0,0,1-3.96,5.04,17.507,17.507,0,0,1-6.12,3,29.094,29.094,0,0,1-7.88,1H302.8V0h-6.64Zm15.2,26.24q6.96,0,10.28-2.6t3.32-8.2q0-5.68-3.4-7.88t-10.2-2.2H302.8v20.88Zm36.32-12.64h5.44l.56,9.2h.24a23.429,23.429,0,0,1,7.48-7.44,18.54,18.54,0,0,1,9.88-2.72,20.848,20.848,0,0,1,4,.36,15.356,15.356,0,0,1,3.68,1.24l-1.52,5.68a34.622,34.622,0,0,0-3.48-1.04,17.331,17.331,0,0,0-3.72-.32,15.716,15.716,0,0,0-8.44,2.52q-4.04,2.52-7.56,8.6V0h-6.56Zm43.52,0h24.64V0h-6.56V-33.52H391.2Zm20.64-8a5.4,5.4,0,0,1-3.8-1.36,4.753,4.753,0,0,1-1.48-3.68,4.881,4.881,0,0,1,1.48-3.72,5.306,5.306,0,0,1,3.8-1.4,5.342,5.342,0,0,1,3.76,1.4,4.815,4.815,0,0,1,1.52,3.72,4.69,4.69,0,0,1-1.52,3.68A5.433,5.433,0,0,1,411.84-46.88ZM440.96-9.44A30.11,30.11,0,0,0,448-5.6a25.309,25.309,0,0,0,9.04,1.44q5.28,0,7.84-1.76a5.141,5.141,0,0,0,2.56-4.32q0-2.24-2.76-4t-9.88-3.52a43.53,43.53,0,0,1-5.72-1.76,22.025,22.025,0,0,1-4.68-2.44,13.108,13.108,0,0,1-3.2-3.08A6.316,6.316,0,0,1,440-28.8a9.466,9.466,0,0,1,1.04-4.36,9.889,9.889,0,0,1,3.08-3.52A15.678,15.678,0,0,1,449.24-39a27,27,0,0,1,7.08-.84,25.355,25.355,0,0,1,8.56,1.48,29.869,29.869,0,0,1,7.04,3.48l-3.2,4.24a22.968,22.968,0,0,0-5.68-2.96,19.745,19.745,0,0,0-6.72-1.12,19.984,19.984,0,0,0-4.56.44,9,9,0,0,0-2.96,1.2,4.439,4.439,0,0,0-1.6,1.8,5.1,5.1,0,0,0-.48,2.16q0,2.4,3.28,3.96a48.589,48.589,0,0,0,8.56,2.92q7.92,2,11.72,4.56a8.051,8.051,0,0,1,3.8,7.04,9.3,9.3,0,0,1-1.12,4.48,11.059,11.059,0,0,1-3.32,3.68A17.13,17.13,0,0,1,464.2.04a27.137,27.137,0,0,1-7.4.92,30.187,30.187,0,0,1-10.6-1.8,38.436,38.436,0,0,1-8.44-4.28ZM484.8-38.88h5.12l.56,5.12h.24a14.861,14.861,0,0,1,3.4-4.4,7.9,7.9,0,0,1,5.32-1.68q5.92,0,7.36,6.72A19.46,19.46,0,0,1,510.64-38,7.789,7.789,0,0,1,516-39.84a7.254,7.254,0,0,1,6.28,3.08q2.2,3.08,2.2,8.92V0h-6.32V-27.28q0-6.88-4.24-6.88a4.987,4.987,0,0,0-3.6,1.48,16.912,16.912,0,0,0-3.04,4.52V0H502V-27.28q0-6.88-4.4-6.88a4.723,4.723,0,0,0-3.52,1.48,18.343,18.343,0,0,0-2.96,4.52V0H484.8Z" transform="translate(124 575)" fill="#76848f"/><path d="M-342.688-11.552h13.76v1.984h-13.76Zm55.872-8.736a7.218,7.218,0,0,0-1.776-.592,10.649,10.649,0,0,0-1.84-.144,3.775,3.775,0,0,0-3.024,1.072,4.478,4.478,0,0,0-.912,2.992v1.408h6.528v2.144h-6.528V0h-2.592V-13.408h-4.448v-1.984l4.448-.16v-1.312a6.677,6.677,0,0,1,1.52-4.576,6.01,6.01,0,0,1,4.752-1.728,11.661,11.661,0,0,1,4.48.9ZM-268.192,0h-2.144l-.224-2.72h-.128a11.2,11.2,0,0,1-2.576,2.24,5.972,5.972,0,0,1-3.216.864A5.009,5.009,0,0,1-280.592-1.2a7.268,7.268,0,0,1-1.3-4.688v-9.664h2.656V-6.24a5.4,5.4,0,0,0,.816,3.28,3.265,3.265,0,0,0,2.768,1.072,4.456,4.456,0,0,0,2.432-.688,11.617,11.617,0,0,0,2.4-2.192V-15.552h2.624Zm6.784-22.784h7.936v17.76a3.242,3.242,0,0,0,.816,2.48,3.155,3.155,0,0,0,2.224.752,7.434,7.434,0,0,0,2.944-.736l.672,1.984q-1.056.384-1.984.656a7.906,7.906,0,0,1-2.208.272A4.9,4.9,0,0,1-254.8-1.024a6,6,0,0,1-1.3-4.192V-20.64h-5.312Zm20.352,0h7.936v17.76a3.242,3.242,0,0,0,.816,2.48,3.155,3.155,0,0,0,2.224.752,7.434,7.434,0,0,0,2.944-.736l.672,1.984q-1.056.384-1.984.656a7.906,7.906,0,0,1-2.208.272,4.9,4.9,0,0,1-3.792-1.408,6,6,0,0,1-1.3-4.192V-20.64h-5.312Zm20.48,11.232h13.76v1.984h-13.76Zm19.84,3.808a8.424,8.424,0,0,1,.672-3.44,7.981,7.981,0,0,1,1.776-2.576,7.7,7.7,0,0,1,2.528-1.616,7.934,7.934,0,0,1,2.928-.56,7.916,7.916,0,0,1,2.976.528,6.228,6.228,0,0,1,2.224,1.488,6.443,6.443,0,0,1,1.392,2.3,8.8,8.8,0,0,1,.48,2.976q0,.416-.016.816a3.942,3.942,0,0,1-.08.688h-12.16a5.57,5.57,0,0,0,.5,2.24,5.228,5.228,0,0,0,1.248,1.7,5.538,5.538,0,0,0,1.856,1.088,6.93,6.93,0,0,0,2.352.384,7.807,7.807,0,0,0,2.512-.384,10.827,10.827,0,0,0,2.224-1.056l.928,1.728a13.645,13.645,0,0,1-2.624,1.28,9.653,9.653,0,0,1-3.36.544,9.321,9.321,0,0,1-3.248-.56,7.965,7.965,0,0,1-2.656-1.6A7.42,7.42,0,0,1-200.08-4.32,8.487,8.487,0,0,1-200.736-7.744Zm12.544-1.28a4.927,4.927,0,0,0-1.216-3.584,4.517,4.517,0,0,0-3.392-1.248,5.342,5.342,0,0,0-1.84.32,4.884,4.884,0,0,0-1.584.944,5.439,5.439,0,0,0-1.184,1.52,6.07,6.07,0,0,0-.64,2.048Zm8.576-6.528h2.176l.224,2.656h.128a12.484,12.484,0,0,1,2.624-2.176,6.054,6.054,0,0,1,3.232-.864,4.968,4.968,0,0,1,4.08,1.584,7.268,7.268,0,0,1,1.3,4.688V0h-2.624V-9.312a5.321,5.321,0,0,0-.832-3.28,3.272,3.272,0,0,0-2.752-1.072,4.533,4.533,0,0,0-1.3.176,4.939,4.939,0,0,0-1.168.528,8.9,8.9,0,0,0-1.184.88q-.608.528-1.28,1.232V0h-2.624Zm19.3,7.808a9.325,9.325,0,0,1,.592-3.408,8.051,8.051,0,0,1,1.568-2.576A6.906,6.906,0,0,1-155.9-15.36a6.4,6.4,0,0,1,2.656-.576,5.583,5.583,0,0,1,2.528.544,10.871,10.871,0,0,1,2.176,1.472l-.1-2.88v-5.984h2.624V0h-2.176l-.224-2.048h-.1A9.366,9.366,0,0,1-150.8-.336a5.731,5.731,0,0,1-2.768.72,6.783,6.783,0,0,1-2.768-.544,5.954,5.954,0,0,1-2.128-1.584,7.194,7.194,0,0,1-1.376-2.544A11.369,11.369,0,0,1-160.32-7.744Zm2.72-.032a7.07,7.07,0,0,0,1.2,4.384,4.005,4.005,0,0,0,3.376,1.568A5.922,5.922,0,0,0-148.64-4.16V-11.9a6.975,6.975,0,0,0-2.064-1.408,5.287,5.287,0,0,0-2.032-.416,4.262,4.262,0,0,0-1.9.432,4.675,4.675,0,0,0-1.536,1.216,5.992,5.992,0,0,0-1.04,1.872A7.272,7.272,0,0,0-157.6-7.776Zm37.984-7.776h2.048l.224,2.048h.1a5.945,5.945,0,0,1,1.36-1.76,3.161,3.161,0,0,1,2.128-.672q2.368,0,2.944,2.688A7.784,7.784,0,0,1-109.28-15.2a3.116,3.116,0,0,1,2.144-.736,2.9,2.9,0,0,1,2.512,1.232,6.1,6.1,0,0,1,.88,3.568V0h-2.528V-10.912q0-2.752-1.7-2.752a2,2,0,0,0-1.44.592,6.765,6.765,0,0,0-1.216,1.808V0h-2.112V-10.912q0-2.752-1.76-2.752a1.889,1.889,0,0,0-1.408.592,7.337,7.337,0,0,0-1.184,1.808V0h-2.528Zm20.64,7.808a8.424,8.424,0,0,1,.672-3.44,7.981,7.981,0,0,1,1.776-2.576A7.7,7.7,0,0,1-94-15.376a7.934,7.934,0,0,1,2.928-.56,7.916,7.916,0,0,1,2.976.528,6.228,6.228,0,0,1,2.224,1.488,6.444,6.444,0,0,1,1.392,2.3A8.8,8.8,0,0,1-84-8.64q0,.416-.016.816a3.941,3.941,0,0,1-.08.688h-12.16a5.569,5.569,0,0,0,.5,2.24,5.228,5.228,0,0,0,1.248,1.7,5.538,5.538,0,0,0,1.856,1.088,6.93,6.93,0,0,0,2.352.384,7.807,7.807,0,0,0,2.512-.384,10.827,10.827,0,0,0,2.224-1.056l.928,1.728A13.645,13.645,0,0,1-87.264-.16a9.653,9.653,0,0,1-3.36.544,9.321,9.321,0,0,1-3.248-.56,7.964,7.964,0,0,1-2.656-1.6A7.42,7.42,0,0,1-98.32-4.32,8.487,8.487,0,0,1-98.976-7.744Zm12.544-1.28a4.927,4.927,0,0,0-1.216-3.584,4.518,4.518,0,0,0-3.392-1.248,5.342,5.342,0,0,0-1.84.32,4.884,4.884,0,0,0-1.584.944,5.439,5.439,0,0,0-1.184,1.52,6.07,6.07,0,0,0-.64,2.048Zm7.52-6.528h2.048l.224,2.048h.1a5.945,5.945,0,0,1,1.36-1.76,3.161,3.161,0,0,1,2.128-.672q2.368,0,2.944,2.688A7.784,7.784,0,0,1-68.576-15.2a3.116,3.116,0,0,1,2.144-.736A2.9,2.9,0,0,1-63.92-14.7a6.1,6.1,0,0,1,.88,3.568V0h-2.528V-10.912q0-2.752-1.7-2.752a2,2,0,0,0-1.44.592,6.765,6.765,0,0,0-1.216,1.808V0h-2.112V-10.912q0-2.752-1.76-2.752a1.889,1.889,0,0,0-1.408.592,7.337,7.337,0,0,0-1.184,1.808V0h-2.528ZM-57.5-22.784h2.624v6.208l-.064,3.008A8.948,8.948,0,0,1-52.432-15.3a6.582,6.582,0,0,1,2.768-.64,6.587,6.587,0,0,1,2.784.56,5.433,5.433,0,0,1,2.032,1.6,7.2,7.2,0,0,1,1.232,2.5A11.81,11.81,0,0,1-43.2-8.032a10.253,10.253,0,0,1-.576,3.552,8.117,8.117,0,0,1-1.552,2.656A6.518,6.518,0,0,1-47.584-.176a6.559,6.559,0,0,1-2.656.56,6.122,6.122,0,0,1-2.416-.56,9.046,9.046,0,0,1-2.416-1.552h-.1L-55.392,0H-57.5ZM-54.88-3.648A7.154,7.154,0,0,0-52.624-2.24a5.869,5.869,0,0,0,1.968.416,4.162,4.162,0,0,0,1.888-.432,4.563,4.563,0,0,0,1.5-1.216,5.621,5.621,0,0,0,.992-1.936A8.858,8.858,0,0,0-45.92-8a9.919,9.919,0,0,0-.256-2.336,5.278,5.278,0,0,0-.784-1.808,3.6,3.6,0,0,0-1.36-1.168,4.391,4.391,0,0,0-1.984-.416,5.093,5.093,0,0,0-2.192.56,8.9,8.9,0,0,0-2.384,1.776Zm16.96-4.1a8.424,8.424,0,0,1,.672-3.44,7.981,7.981,0,0,1,1.776-2.576,7.7,7.7,0,0,1,2.528-1.616,7.934,7.934,0,0,1,2.928-.56,7.916,7.916,0,0,1,2.976.528,6.228,6.228,0,0,1,2.224,1.488,6.444,6.444,0,0,1,1.392,2.3,8.8,8.8,0,0,1,.48,2.976q0,.416-.016.816a3.942,3.942,0,0,1-.08.688H-35.2a5.569,5.569,0,0,0,.5,2.24,5.228,5.228,0,0,0,1.248,1.7A5.538,5.538,0,0,0-31.6-2.112a6.93,6.93,0,0,0,2.352.384,7.807,7.807,0,0,0,2.512-.384,10.827,10.827,0,0,0,2.224-1.056l.928,1.728A13.645,13.645,0,0,1-26.208-.16a9.653,9.653,0,0,1-3.36.544,9.321,9.321,0,0,1-3.248-.56,7.964,7.964,0,0,1-2.656-1.6A7.42,7.42,0,0,1-37.264-4.32,8.487,8.487,0,0,1-37.92-7.744Zm12.544-1.28a4.927,4.927,0,0,0-1.216-3.584,4.517,4.517,0,0,0-3.392-1.248,5.342,5.342,0,0,0-1.84.32,4.884,4.884,0,0,0-1.584.944,5.439,5.439,0,0,0-1.184,1.52,6.07,6.07,0,0,0-.64,2.048ZM-15.1-15.552h2.176l.224,3.68h.1a9.372,9.372,0,0,1,2.992-2.976,7.416,7.416,0,0,1,3.952-1.088,8.339,8.339,0,0,1,1.6.144,6.142,6.142,0,0,1,1.472.5L-3.2-13.024a13.847,13.847,0,0,0-1.392-.416,6.932,6.932,0,0,0-1.488-.128A6.286,6.286,0,0,0-9.456-12.56,9.608,9.608,0,0,0-12.48-9.12V0H-15.1ZM4.16-3.776A12.044,12.044,0,0,0,6.976-2.24a10.124,10.124,0,0,0,3.616.576,5.592,5.592,0,0,0,3.136-.7A2.056,2.056,0,0,0,14.752-4.1a1.96,1.96,0,0,0-1.1-1.6A14.538,14.538,0,0,0,9.7-7.1a17.411,17.411,0,0,1-2.288-.7,8.81,8.81,0,0,1-1.872-.976,5.243,5.243,0,0,1-1.28-1.232,2.526,2.526,0,0,1-.48-1.5,3.786,3.786,0,0,1,.416-1.744,3.956,3.956,0,0,1,1.232-1.408A6.271,6.271,0,0,1,7.472-15.6a10.8,10.8,0,0,1,2.832-.336,10.142,10.142,0,0,1,3.424.592,11.947,11.947,0,0,1,2.816,1.392l-1.28,1.7a9.187,9.187,0,0,0-2.272-1.184,7.9,7.9,0,0,0-2.688-.448,7.994,7.994,0,0,0-1.824.176,3.6,3.6,0,0,0-1.184.48,1.776,1.776,0,0,0-.64.72,2.039,2.039,0,0,0-.192.864q0,.96,1.312,1.584A19.435,19.435,0,0,0,11.2-8.9a15.468,15.468,0,0,1,4.688,1.824,3.22,3.22,0,0,1,1.52,2.816,3.722,3.722,0,0,1-.448,1.792A4.424,4.424,0,0,1,15.632-.992,6.852,6.852,0,0,1,13.456.016,10.855,10.855,0,0,1,10.5.384a12.075,12.075,0,0,1-4.24-.72A15.375,15.375,0,0,1,2.88-2.048ZM23.9-22.784h2.624v6.208L26.4-12.9a13.208,13.208,0,0,1,2.656-2.176,6.054,6.054,0,0,1,3.232-.864,4.968,4.968,0,0,1,4.08,1.584,7.268,7.268,0,0,1,1.3,4.688V0H35.04V-9.312a5.321,5.321,0,0,0-.832-3.28,3.272,3.272,0,0,0-2.752-1.072,4.533,4.533,0,0,0-1.3.176,4.939,4.939,0,0,0-1.168.528,8.9,8.9,0,0,0-1.184.88q-.608.528-1.28,1.232V0H23.9ZM44.16-15.552h9.856V0H51.392V-13.408H44.16Zm8.256-3.2A2.159,2.159,0,0,1,50.9-19.3a1.9,1.9,0,0,1-.592-1.472,1.952,1.952,0,0,1,.592-1.488,2.122,2.122,0,0,1,1.52-.56,2.137,2.137,0,0,1,1.5.56,1.926,1.926,0,0,1,.608,1.488A1.876,1.876,0,0,1,53.92-19.3,2.173,2.173,0,0,1,52.416-18.752ZM67.232,1.312V6.56H64.608V-15.552h2.176l.224,1.984h.1a9.633,9.633,0,0,1,2.512-1.7,6.656,6.656,0,0,1,2.864-.672,6.478,6.478,0,0,1,2.768.56,5.465,5.465,0,0,1,2.016,1.6,7.2,7.2,0,0,1,1.232,2.5A11.939,11.939,0,0,1,78.912-8a10.118,10.118,0,0,1-.576,3.536,8.149,8.149,0,0,1-1.552,2.64A6.518,6.518,0,0,1,74.528-.176a6.635,6.635,0,0,1-2.688.56,6.134,6.134,0,0,1-2.352-.528,8.039,8.039,0,0,1-2.32-1.488Zm0-4.96a7.214,7.214,0,0,0,2.24,1.408,5.68,5.68,0,0,0,1.92.416,4.275,4.275,0,0,0,3.456-1.632A6.952,6.952,0,0,0,76.192-8a9.919,9.919,0,0,0-.256-2.336,5.278,5.278,0,0,0-.784-1.808,3.6,3.6,0,0,0-1.36-1.168,4.391,4.391,0,0,0-1.984-.416,5.093,5.093,0,0,0-2.192.56,8.9,8.9,0,0,0-2.384,1.776Zm40.7,4.96V6.56h-2.624V-15.552h2.176l.224,1.984h.1a9.633,9.633,0,0,1,2.512-1.7,6.656,6.656,0,0,1,2.864-.672,6.478,6.478,0,0,1,2.768.56,5.465,5.465,0,0,1,2.016,1.6,7.2,7.2,0,0,1,1.232,2.5A11.939,11.939,0,0,1,119.616-8a10.118,10.118,0,0,1-.576,3.536,8.149,8.149,0,0,1-1.552,2.64,6.518,6.518,0,0,1-2.256,1.648,6.635,6.635,0,0,1-2.688.56,6.134,6.134,0,0,1-2.352-.528,8.039,8.039,0,0,1-2.32-1.488Zm0-4.96a7.214,7.214,0,0,0,2.24,1.408,5.68,5.68,0,0,0,1.92.416,4.275,4.275,0,0,0,3.456-1.632A6.952,6.952,0,0,0,116.9-8a9.919,9.919,0,0,0-.256-2.336,5.278,5.278,0,0,0-.784-1.808,3.6,3.6,0,0,0-1.36-1.168,4.391,4.391,0,0,0-1.984-.416,5.093,5.093,0,0,0-2.192.56,8.9,8.9,0,0,0-2.384,1.776Zm19.424-11.9h2.176l.224,3.68h.1a9.372,9.372,0,0,1,2.992-2.976,7.416,7.416,0,0,1,3.952-1.088,8.34,8.34,0,0,1,1.6.144,6.142,6.142,0,0,1,1.472.5l-.608,2.272a13.848,13.848,0,0,0-1.392-.416,6.932,6.932,0,0,0-1.488-.128,6.286,6.286,0,0,0-3.376,1.008,9.608,9.608,0,0,0-3.024,3.44V0H127.36Zm17.6,7.808a9.079,9.079,0,0,1,.624-3.472,7.758,7.758,0,0,1,1.68-2.576,7.059,7.059,0,0,1,2.448-1.6,7.972,7.972,0,0,1,2.928-.544,7.972,7.972,0,0,1,2.928.544,7.059,7.059,0,0,1,2.448,1.6,7.758,7.758,0,0,1,1.68,2.576,9.079,9.079,0,0,1,.624,3.472A8.988,8.988,0,0,1,159.7-4.3a7.579,7.579,0,0,1-1.68,2.56A7.172,7.172,0,0,1,155.568-.16a7.972,7.972,0,0,1-2.928.544,7.972,7.972,0,0,1-2.928-.544,7.172,7.172,0,0,1-2.448-1.584,7.579,7.579,0,0,1-1.68-2.56A8.988,8.988,0,0,1,144.96-7.744Zm2.72,0a7.876,7.876,0,0,0,.352,2.432A5.536,5.536,0,0,0,149.04-3.44a4.58,4.58,0,0,0,1.568,1.216,4.687,4.687,0,0,0,2.032.432,4.687,4.687,0,0,0,2.032-.432A4.579,4.579,0,0,0,156.24-3.44a5.536,5.536,0,0,0,1.008-1.872,7.876,7.876,0,0,0,.352-2.432,8.031,8.031,0,0,0-.352-2.448,5.694,5.694,0,0,0-1.008-1.9,4.5,4.5,0,0,0-1.568-1.232,4.687,4.687,0,0,0-2.032-.432,4.687,4.687,0,0,0-2.032.432A4.5,4.5,0,0,0,149.04-12.1a5.694,5.694,0,0,0-1.008,1.9A8.031,8.031,0,0,0,147.68-7.744Zm22.3-5.664H165.6v-1.984l4.48-.16.352-4.352h2.176v4.352h7.648v2.144h-7.648v7.392a7.8,7.8,0,0,0,.192,1.84,3.283,3.283,0,0,0,.64,1.328,2.7,2.7,0,0,0,1.216.816,5.7,5.7,0,0,0,1.888.272,9.657,9.657,0,0,0,2.016-.192,11.543,11.543,0,0,0,1.728-.512l.576,1.92a17.476,17.476,0,0,1-2.336.656,12.285,12.285,0,0,1-2.56.272A7.653,7.653,0,0,1,173.12-.08a4.455,4.455,0,0,1-1.84-1.312,5.248,5.248,0,0,1-.992-2.032,10.55,10.55,0,0,1-.3-2.624Zm15.968,5.664a8.424,8.424,0,0,1,.672-3.44A7.981,7.981,0,0,1,188.4-13.76a7.7,7.7,0,0,1,2.528-1.616,7.934,7.934,0,0,1,2.928-.56,7.916,7.916,0,0,1,2.976.528,6.228,6.228,0,0,1,2.224,1.488,6.443,6.443,0,0,1,1.392,2.3,8.8,8.8,0,0,1,.48,2.976q0,.416-.016.816a3.941,3.941,0,0,1-.08.688h-12.16a5.57,5.57,0,0,0,.5,2.24,5.228,5.228,0,0,0,1.248,1.7,5.538,5.538,0,0,0,1.856,1.088,6.93,6.93,0,0,0,2.352.384,7.807,7.807,0,0,0,2.512-.384,10.827,10.827,0,0,0,2.224-1.056l.928,1.728a13.645,13.645,0,0,1-2.624,1.28,9.653,9.653,0,0,1-3.36.544,9.321,9.321,0,0,1-3.248-.56,7.964,7.964,0,0,1-2.656-1.6,7.42,7.42,0,0,1-1.792-2.544A8.487,8.487,0,0,1,185.952-7.744ZM198.5-9.024a4.927,4.927,0,0,0-1.216-3.584,4.517,4.517,0,0,0-3.392-1.248,5.342,5.342,0,0,0-1.84.32,4.884,4.884,0,0,0-1.584.944,5.439,5.439,0,0,0-1.184,1.52,6.07,6.07,0,0,0-.64,2.048Zm8.16,1.28a8.336,8.336,0,0,1,.688-3.472,7.605,7.605,0,0,1,1.872-2.576,8.022,8.022,0,0,1,2.768-1.6,10.223,10.223,0,0,1,3.344-.544,7.551,7.551,0,0,1,3.312.672,8.944,8.944,0,0,1,2.352,1.6l-1.312,1.7a8.495,8.495,0,0,0-2-1.312,5.318,5.318,0,0,0-2.256-.48,6.793,6.793,0,0,0-2.464.432,5.292,5.292,0,0,0-1.9,1.232,5.8,5.8,0,0,0-1.232,1.9,6.454,6.454,0,0,0-.448,2.448,6.54,6.54,0,0,0,.432,2.432,5.464,5.464,0,0,0,1.216,1.872,5.431,5.431,0,0,0,1.888,1.216,6.666,6.666,0,0,0,2.448.432,6.165,6.165,0,0,0,2.64-.56,9.925,9.925,0,0,0,2.192-1.392l1.152,1.7A9.661,9.661,0,0,1,218.48-.256a8.759,8.759,0,0,1-3.312.64,10.14,10.14,0,0,1-3.376-.544,7.869,7.869,0,0,1-2.7-1.584A7.113,7.113,0,0,1,207.3-4.3,8.79,8.79,0,0,1,206.656-7.744Zm24.384-5.664h-4.384v-1.984l4.48-.16.352-4.352h2.176v4.352h7.648v2.144h-7.648v7.392a7.8,7.8,0,0,0,.192,1.84,3.283,3.283,0,0,0,.64,1.328,2.7,2.7,0,0,0,1.216.816,5.7,5.7,0,0,0,1.888.272,9.657,9.657,0,0,0,2.016-.192,11.543,11.543,0,0,0,1.728-.512l.576,1.92a17.476,17.476,0,0,1-2.336.656,12.285,12.285,0,0,1-2.56.272,7.653,7.653,0,0,1-2.848-.464,4.455,4.455,0,0,1-1.84-1.312,5.248,5.248,0,0,1-.992-2.032,10.55,10.55,0,0,1-.3-2.624Zm16.64-2.144h9.856V0h-2.624V-13.408H247.68Zm8.256-3.2a2.159,2.159,0,0,1-1.52-.544,1.9,1.9,0,0,1-.592-1.472,1.952,1.952,0,0,1,.592-1.488,2.122,2.122,0,0,1,1.52-.56,2.137,2.137,0,0,1,1.5.56,1.926,1.926,0,0,1,.608,1.488,1.876,1.876,0,0,1-.608,1.472A2.173,2.173,0,0,1,255.936-18.752ZM267.072-7.744a9.079,9.079,0,0,1,.624-3.472,7.757,7.757,0,0,1,1.68-2.576,7.059,7.059,0,0,1,2.448-1.6,7.972,7.972,0,0,1,2.928-.544,7.973,7.973,0,0,1,2.928.544,7.059,7.059,0,0,1,2.448,1.6,7.757,7.757,0,0,1,1.68,2.576,9.079,9.079,0,0,1,.624,3.472,8.989,8.989,0,0,1-.624,3.44,7.579,7.579,0,0,1-1.68,2.56A7.172,7.172,0,0,1,277.68-.16a7.972,7.972,0,0,1-2.928.544,7.972,7.972,0,0,1-2.928-.544,7.172,7.172,0,0,1-2.448-1.584A7.579,7.579,0,0,1,267.7-4.3,8.989,8.989,0,0,1,267.072-7.744Zm2.72,0a7.877,7.877,0,0,0,.352,2.432,5.535,5.535,0,0,0,1.008,1.872,4.58,4.58,0,0,0,1.568,1.216,4.687,4.687,0,0,0,2.032.432,4.687,4.687,0,0,0,2.032-.432,4.58,4.58,0,0,0,1.568-1.216,5.536,5.536,0,0,0,1.008-1.872,7.877,7.877,0,0,0,.352-2.432,8.031,8.031,0,0,0-.352-2.448,5.7,5.7,0,0,0-1.008-1.9,4.5,4.5,0,0,0-1.568-1.232,4.687,4.687,0,0,0-2.032-.432,4.687,4.687,0,0,0-2.032.432,4.5,4.5,0,0,0-1.568,1.232,5.694,5.694,0,0,0-1.008,1.9A8.031,8.031,0,0,0,269.792-7.744Zm18.688-7.808h2.176l.224,2.656h.128a12.484,12.484,0,0,1,2.624-2.176,6.054,6.054,0,0,1,3.232-.864,4.968,4.968,0,0,1,4.08,1.584,7.268,7.268,0,0,1,1.3,4.688V0h-2.624V-9.312a5.321,5.321,0,0,0-.832-3.28,3.272,3.272,0,0,0-2.752-1.072,4.533,4.533,0,0,0-1.3.176,4.939,4.939,0,0,0-1.168.528,8.9,8.9,0,0,0-1.184.88q-.608.528-1.28,1.232V0H288.48Zm40.448,4h13.76v1.984h-13.76Z" transform="translate(394 639)" fill="rgba(118,132,143,0.51)"/></g></svg>