<svg xmlns="http://www.w3.org/2000/svg" xmlns:xlink="http://www.w3.org/1999/xlink" width="542" height="499" viewBox="0 0 542 499"><defs><clipPath id="b"><rect width="542" height="499"/></clipPath></defs><g id="a" clip-path="url(#b)"><g transform="translate(-37 -128)"><path d="M144.284,253.722h0l-.752-.714h1.623l-.87.714Zm-.754-.714H-107.993a4.949,4.949,0,0,1-4.33-2.5,4.95,4.95,0,0,1,0-5l87.83-151.987h0L-69.819,50.493-17.66,81.7l-6.832,11.822h0L143.532,253.007h0Zm243.149,0H145.155L314.427,114.06l-31.1-53.475L144.284,178.574-17.66,81.7,135.014-182.5a4.948,4.948,0,0,1,4.329-2.5,4.95,4.95,0,0,1,4.329,2.5l139.676,243.1L391.009,245.5a5,5,0,0,1-4.33,7.5Z" transform="translate(163.657 342.993)" fill="#76848f"/><g transform="translate(0 6)"><path d="M81.117,18.855l-.012-.012a.352.352,0,0,0-.039-.035,1.994,1.994,0,0,0-2.609-.082C59.5,31.48,41.051,32.671,21.57,18.75a2,2,0,0,0-2.359-.156h0a1.736,1.736,0,0,0-.148.105c-.016.012-.027.023-.043.035a1.024,1.024,0,0,0-.1.086c-.027.023-.051.047-.074.07s-.039.043-.059.066a1.215,1.215,0,0,0-.09.109.215.215,0,0,0-.027.035,2,2,0,0,0,.09,2.48c13.91,19.469,12.723,37.906-.02,56.855a1.994,1.994,0,0,0,.008,2.555c.027.035.055.066.082.1.023.02.043.039.063.059l.035.035a2,2,0,0,0,2.613.086c18.969-12.75,37.406-13.949,56.887-.027v0a2,2,0,0,0,2.355.156c.008,0,.012,0,.016-.008.051-.031.094-.062.141-.1a.428.428,0,0,0,.043-.039,1.073,1.073,0,0,0,.1-.086l.07-.07c.02-.023.039-.043.059-.062.035-.039.063-.074.094-.113a.215.215,0,0,1,.027-.035c.035-.051.07-.1.1-.156a2.008,2.008,0,0,0-.191-2.32c-13.906-19.473-12.715-37.9.023-56.863h0A1.994,1.994,0,0,0,81.254,19c-.027-.031-.055-.062-.086-.094-.016-.02-.031-.035-.047-.055Z" transform="matrix(0.695, 0.719, -0.719, 0.695, 511.954, 287.02)" fill="#76848f" fill-rule="evenodd"/><path d="M44.753,18.522l0,0-.016-.015a.84.84,0,0,0-1.1-.035c-7.988,5.373-15.759,5.875-23.967.01a.841.841,0,0,0-.994-.066h0a.732.732,0,0,0-.063.044l-.018.015a.431.431,0,0,0-.041.036c-.012.01-.021.02-.031.03l-.025.028a.512.512,0,0,0-.038.046.09.09,0,0,0-.012.015.844.844,0,0,0,.038,1.045c5.86,8.2,5.36,15.97-.008,23.953a.84.84,0,0,0,0,1.076l.035.043c.01.008.018.016.026.025l.015.015a.842.842,0,0,0,1.1.036c7.992-5.372,15.759-5.877,23.967-.012v0a.842.842,0,0,0,.992.066l.007,0c.021-.013.039-.026.059-.041a.179.179,0,0,0,.018-.016.451.451,0,0,0,.043-.036l.03-.03c.008-.01.016-.018.025-.026s.026-.031.039-.048a.09.09,0,0,1,.012-.015c.015-.021.03-.043.043-.066a.846.846,0,0,0-.081-.978c-5.859-8.2-5.357-15.968.01-23.956h0a.84.84,0,0,0,0-1.078c-.012-.013-.023-.026-.036-.039l-.02-.023Z" transform="matrix(0.695, 0.719, -0.719, 0.695, 466.254, 262.181)" fill="#76848f" fill-rule="evenodd"/></g></g></g></svg>